<?xml version="1.0" encoding="UTF-8" standalone="no"?>
<svg xmlns="http://www.w3.org/2000/svg"
     xmlns:xlink="http://www.w3.org/1999/xlink"
     width="576pt" height="432pt" viewBox="0 0 576 432">
<title>gl2ps_renderer figure</title>
<desc>
Creator: GL2PS 1.4.0, (C) 1999-2017 C. Geuzaine
For: Octave
CreationDate: Fri Jan 25 20:12:09 2019
</desc>
<defs>
</defs>
<polygon fill="#ffffff" points="0,0 576,0 576,432 0,432"/>
<g>
<polygon fill="#ffffff" points="0,432 576,432 576,0 0,0" shape-rendering="crispEdges"/>
<clipPath id="cp00576432">
  <polygon points="0,432 576,432 576,0 0,0"/>
</clipPath>
<g clip-path="url(#cp00576432)">
<polygon fill="#ffffff" shape-rendering="crispEdges" points="74.88,32.4 74.88,384.48 521.28,384.48"/>
<polygon fill="#ffffff" shape-rendering="crispEdges" points="74.88,32.4 521.28,384.48 521.28,32.4"/>
<polyline fill="none" stroke="#262626" stroke-width="0.5" stroke-linecap="butt" stroke-linejoin="miter" points="74.88,384.48 74.88,380.015"/>
<polyline fill="none" stroke="#262626" stroke-width="0.5" stroke-linecap="butt" stroke-linejoin="miter" points="74.88,32.4 74.88,36.8651"/>
<polyline fill="none" stroke="#262626" stroke-width="0.5" stroke-linecap="butt" stroke-linejoin="miter" points="138.651,384.48 138.651,380.015"/>
<polyline fill="none" stroke="#262626" stroke-width="0.5" stroke-linecap="butt" stroke-linejoin="miter" points="138.651,32.4 138.651,36.8651"/>
<polyline fill="none" stroke="#262626" stroke-width="0.5" stroke-linecap="butt" stroke-linejoin="miter" points="202.423,384.48 202.423,380.015"/>
<polyline fill="none" stroke="#262626" stroke-width="0.5" stroke-linecap="butt" stroke-linejoin="miter" points="202.423,32.4 202.423,36.8651"/>
<polyline fill="none" stroke="#262626" stroke-width="0.5" stroke-linecap="butt" stroke-linejoin="miter" points="266.194,384.48 266.194,380.015"/>
<polyline fill="none" stroke="#262626" stroke-width="0.5" stroke-linecap="butt" stroke-linejoin="miter" points="266.194,32.4 266.194,36.8651"/>
<polyline fill="none" stroke="#262626" stroke-width="0.5" stroke-linecap="butt" stroke-linejoin="miter" points="329.966,384.48 329.966,380.015"/>
<polyline fill="none" stroke="#262626" stroke-width="0.5" stroke-linecap="butt" stroke-linejoin="miter" points="329.966,32.4 329.966,36.8651"/>
<polyline fill="none" stroke="#262626" stroke-width="0.5" stroke-linecap="butt" stroke-linejoin="miter" points="393.737,384.48 393.737,380.015"/>
<polyline fill="none" stroke="#262626" stroke-width="0.5" stroke-linecap="butt" stroke-linejoin="miter" points="393.737,32.4 393.737,36.8651"/>
<polyline fill="none" stroke="#262626" stroke-width="0.5" stroke-linecap="butt" stroke-linejoin="miter" points="457.509,384.48 457.509,380.015"/>
<polyline fill="none" stroke="#262626" stroke-width="0.5" stroke-linecap="butt" stroke-linejoin="miter" points="457.509,32.4 457.509,36.8651"/>
<polyline fill="none" stroke="#262626" stroke-width="0.5" stroke-linecap="butt" stroke-linejoin="miter" points="521.28,384.48 521.28,380.015"/>
<polyline fill="none" stroke="#262626" stroke-width="0.5" stroke-linecap="butt" stroke-linejoin="miter" points="521.28,32.4 521.28,36.8651"/>
<text xml:space="preserve" transform="translate(71.88,400.481) rotate(-0,3,-11)" font-family="FreeSans" font-weight="normal" font-style="normal" font-size="10"><tspan y="-1" fill="rgb(38,38,38)" x="0 ">0</tspan></text>
<text xml:space="preserve" transform="translate(126.651,400.481) rotate(-0,12,-11)" font-family="FreeSans" font-weight="normal" font-style="normal" font-size="10"><tspan y="-1" fill="rgb(38,38,38)" x="0 6 12 18 ">5000</tspan></text>
<text xml:space="preserve" transform="translate(187.423,400.481) rotate(-0,15,-11)" font-family="FreeSans" font-weight="normal" font-style="normal" font-size="10"><tspan y="-1" fill="rgb(38,38,38)" x="0 6 12 18 24 ">10000</tspan></text>
<text xml:space="preserve" transform="translate(251.194,400.481) rotate(-0,15,-11)" font-family="FreeSans" font-weight="normal" font-style="normal" font-size="10"><tspan y="-1" fill="rgb(38,38,38)" x="0 6 12 18 24 ">15000</tspan></text>
<text xml:space="preserve" transform="translate(314.966,400.481) rotate(-0,15,-11)" font-family="FreeSans" font-weight="normal" font-style="normal" font-size="10"><tspan y="-1" fill="rgb(38,38,38)" x="0 6 12 18 24 ">20000</tspan></text>
<text xml:space="preserve" transform="translate(378.737,400.481) rotate(-0,15,-11)" font-family="FreeSans" font-weight="normal" font-style="normal" font-size="10"><tspan y="-1" fill="rgb(38,38,38)" x="0 6 12 18 24 ">25000</tspan></text>
<text xml:space="preserve" transform="translate(442.509,400.481) rotate(-0,15,-11)" font-family="FreeSans" font-weight="normal" font-style="normal" font-size="10"><tspan y="-1" fill="rgb(38,38,38)" x="0 6 12 18 24 ">30000</tspan></text>
<text xml:space="preserve" transform="translate(506.28,400.481) rotate(-0,15,-11)" font-family="FreeSans" font-weight="normal" font-style="normal" font-size="10"><tspan y="-1" fill="rgb(38,38,38)" x="0 6 12 18 24 ">35000</tspan></text>
<polyline fill="none" stroke="#262626" stroke-width="0.5" stroke-linecap="butt" stroke-linejoin="miter" points="74.88,384.48 79.348,384.48"/>
<polyline fill="none" stroke="#262626" stroke-width="0.5" stroke-linecap="butt" stroke-linejoin="miter" points="521.28,384.48 516.812,384.48"/>
<polyline fill="none" stroke="#262626" stroke-width="0.5" stroke-linecap="butt" stroke-linejoin="miter" points="74.88,325.8 79.348,325.8"/>
<polyline fill="none" stroke="#262626" stroke-width="0.5" stroke-linecap="butt" stroke-linejoin="miter" points="521.28,325.8 516.812,325.8"/>
<polyline fill="none" stroke="#262626" stroke-width="0.5" stroke-linecap="butt" stroke-linejoin="miter" points="74.88,267.12 79.348,267.12"/>
<polyline fill="none" stroke="#262626" stroke-width="0.5" stroke-linecap="butt" stroke-linejoin="miter" points="521.28,267.12 516.812,267.12"/>
<polyline fill="none" stroke="#262626" stroke-width="0.5" stroke-linecap="butt" stroke-linejoin="miter" points="74.88,208.44 79.348,208.44"/>
<polyline fill="none" stroke="#262626" stroke-width="0.5" stroke-linecap="butt" stroke-linejoin="miter" points="521.28,208.44 516.812,208.44"/>
<polyline fill="none" stroke="#262626" stroke-width="0.5" stroke-linecap="butt" stroke-linejoin="miter" points="74.88,149.76 79.348,149.76"/>
<polyline fill="none" stroke="#262626" stroke-width="0.5" stroke-linecap="butt" stroke-linejoin="miter" points="521.28,149.76 516.812,149.76"/>
<polyline fill="none" stroke="#262626" stroke-width="0.5" stroke-linecap="butt" stroke-linejoin="miter" points="74.88,91.08 79.348,91.08"/>
<polyline fill="none" stroke="#262626" stroke-width="0.5" stroke-linecap="butt" stroke-linejoin="miter" points="521.28,91.08 516.812,91.08"/>
<polyline fill="none" stroke="#262626" stroke-width="0.5" stroke-linecap="butt" stroke-linejoin="miter" points="74.88,32.4 79.348,32.4"/>
<polyline fill="none" stroke="#262626" stroke-width="0.5" stroke-linecap="butt" stroke-linejoin="miter" points="521.28,32.4 516.812,32.4"/>
<text xml:space="preserve" transform="translate(57.8755,389.98) rotate(-0,12,-5.5)" font-family="FreeSans" font-weight="normal" font-style="normal" font-size="10"><tspan y="-1" fill="rgb(38,38,38)" x="0 6 ">23</tspan></text>
<text xml:space="preserve" transform="translate(57.8755,331.3) rotate(-0,12,-5.5)" font-family="FreeSans" font-weight="normal" font-style="normal" font-size="10"><tspan y="-1" fill="rgb(38,38,38)" x="0 6 ">24</tspan></text>
<text xml:space="preserve" transform="translate(57.8755,272.62) rotate(-0,12,-5.5)" font-family="FreeSans" font-weight="normal" font-style="normal" font-size="10"><tspan y="-1" fill="rgb(38,38,38)" x="0 6 ">25</tspan></text>
<text xml:space="preserve" transform="translate(57.8755,213.94) rotate(-0,12,-5.5)" font-family="FreeSans" font-weight="normal" font-style="normal" font-size="10"><tspan y="-1" fill="rgb(38,38,38)" x="0 6 ">26</tspan></text>
<text xml:space="preserve" transform="translate(57.8755,155.26) rotate(-0,12,-5.5)" font-family="FreeSans" font-weight="normal" font-style="normal" font-size="10"><tspan y="-1" fill="rgb(38,38,38)" x="0 6 ">27</tspan></text>
<text xml:space="preserve" transform="translate(57.8755,96.58) rotate(-0,12,-5.5)" font-family="FreeSans" font-weight="normal" font-style="normal" font-size="10"><tspan y="-1" fill="rgb(38,38,38)" x="0 6 ">28</tspan></text>
<text xml:space="preserve" transform="translate(57.8755,37.9) rotate(-0,12,-5.5)" font-family="FreeSans" font-weight="normal" font-style="normal" font-size="10"><tspan y="-1" fill="rgb(38,38,38)" x="0 6 ">29</tspan></text>
<polyline fill="none" stroke="#262626" stroke-width="0.5" stroke-linecap="square" stroke-linejoin="miter" stroke-dasharray="16,0" points="74.88,384.48 521.28,384.48"/>
<polyline fill="none" stroke="#262626" stroke-width="0.5" stroke-linecap="square" stroke-linejoin="miter" stroke-dasharray="16,0" points="74.88,32.4 521.28,32.4"/>
<polyline fill="none" stroke="#262626" stroke-width="0.5" stroke-linecap="square" stroke-linejoin="miter" stroke-dasharray="16,0" points="74.88,384.48 74.88,32.4"/>
<polyline fill="none" stroke="#262626" stroke-width="0.5" stroke-linecap="square" stroke-linejoin="miter" stroke-dasharray="16,0" points="521.28,384.48 521.28,32.4"/>
<text xml:space="preserve" transform="translate(278.08,413.481) rotate(-0,20,-13)" font-family="FreeSans" font-weight="normal" font-style="normal" font-size="11"><tspan y="-2" fill="rgb(38,38,38)" x="0 7 9 18 24 27 31 36 ">Time (s)</tspan></text>
<text xml:space="preserve" transform="translate(12.8755,208.44) rotate(-90,41,0)" font-family="FreeSans" font-weight="normal" font-style="normal" font-size="11"><tspan y="-2" fill="rgb(38,38,38)" x="0 7 13 22 28 34 38 44 47 53 57 63 66 70 78 ">Temperature (C)</tspan></text>
<text xml:space="preserve" transform="translate(166.08,22.4) rotate(-0,132,0)" font-family="FreeSans" font-weight="bold" font-style="normal" font-size="11"><tspan y="-2" fill="rgb(0,0,0)" x="0 7 13 23 30 36 40 46 50 57 61 67 70 77 81 84 90 96 106 113 116 122 125 129 136 140 143 150 157 161 167 171 174 181 188 191 198 202 205 211 217 224 230 234 237 247 253 260 ">Temperature of sample for duration of experiment</tspan></text>
<polyline fill="none" stroke="#ff00ff" stroke-width="0.5" stroke-linecap="butt" stroke-linejoin="round" stroke-dasharray="4,4,4,4" points="124.711,375.42 126.025,370.504 127.338,365.594 128.665,363.091 129.966,359.892 316.319,40.9838 317.849,56.0416 319.38,70.2052 320.91,82.3584 322.441,94.4061 323.971,105.558 325.502,116.249 327.032,125.936 328.563,133.963 330.093,143.352 331.624,151.682 333.167,158.759 334.698,166.545 336.228,173.707 337.759,180.27 339.289,186.726 340.82,192.775 342.35,199.123 343.881,204.765 345.411,210.19 346.942,215.916 348.472,221.834 350.003,225.543 351.533,230.753 353.064,234.408 354.607,239.509 356.138,243.166 357.655,247.313 359.186,250.86 360.729,255.007 362.26,258.255 363.79,262.347 365.321,265.239 366.838,269.032 368.382,273.179 369.912,274.872 371.443,277.709 372.973,280.355 374.504,282.593 376.009,285.54 377.552,288.487 379.095,290.533 380.638,293.834 382.182,296.126 383.699,297.272 385.243,299.373 386.773,303.875 388.304,304.12 389.834,307.121 391.365,309.167 392.895,311.023 394.426,312.469 395.956,314.569 397.487,315.47 399.017,318.226 400.561,320.272 402.078,321.827 403.609,322.373 405.139,324.774 406.67,325.074 408.201,327.23 409.744,328.43 411.274,330.586 412.805,331.841 414.335,332.087 415.866,334.842 417.396,336.043 418.927,338.144 420.457,338.444 421.988,339.044 423.518,340.9 425.049,341.255 426.579,342.756 428.11,343.411 429.64,344.311 431.171,346.467 432.714,347.668 434.245,346.822 435.775,348.077 437.306,348.678 438.836,350.588 440.367,350.534 441.897,350.834 443.428,352.034 444.958,352.989 446.489,353.59 448.019,354.546 449.55,354.901 451.08,355.856 452.611,356.756 497.098,370.705 497.876,371.005 498.641,370.46 499.406,370.705 500.172,369.859"/>
</g>
</g>
</svg>
