<?xml version="1.0" encoding="UTF-8" standalone="no"?>
<svg xmlns="http://www.w3.org/2000/svg"
     xmlns:xlink="http://www.w3.org/1999/xlink"
     width="576pt" height="432pt" viewBox="0 0 576 432">
<title>gl2ps_renderer figure</title>
<desc>
Creator: GL2PS 1.4.0, (C) 1999-2017 C. Geuzaine
For: Octave
CreationDate: Sun Jan 20 23:29:22 2019
</desc>
<defs>
</defs>
<polygon fill="#ffffff" points="0,0 576,0 576,432 0,432"/>
<g>
<polygon fill="#ffffff" points="0,432 576,432 576,0 0,0" shape-rendering="crispEdges"/>
<clipPath id="cp00576432">
  <polygon points="0,432 576,432 576,0 0,0"/>
</clipPath>
<g clip-path="url(#cp00576432)">
<polygon fill="#ffffff" shape-rendering="crispEdges" points="74.88,32.4 74.88,384.48 521.28,384.48"/>
<polygon fill="#ffffff" shape-rendering="crispEdges" points="74.88,32.4 521.28,384.48 521.28,32.4"/>
<polyline fill="none" stroke="#262626" stroke-width="0.5" stroke-linecap="butt" stroke-linejoin="miter" points="74.88,384.48 74.88,380.015"/>
<polyline fill="none" stroke="#262626" stroke-width="0.5" stroke-linecap="butt" stroke-linejoin="miter" points="74.88,32.4 74.88,36.8651"/>
<polyline fill="none" stroke="#262626" stroke-width="0.5" stroke-linecap="butt" stroke-linejoin="miter" points="164.16,384.48 164.16,380.015"/>
<polyline fill="none" stroke="#262626" stroke-width="0.5" stroke-linecap="butt" stroke-linejoin="miter" points="164.16,32.4 164.16,36.8651"/>
<polyline fill="none" stroke="#262626" stroke-width="0.5" stroke-linecap="butt" stroke-linejoin="miter" points="253.44,384.48 253.44,380.015"/>
<polyline fill="none" stroke="#262626" stroke-width="0.5" stroke-linecap="butt" stroke-linejoin="miter" points="253.44,32.4 253.44,36.8651"/>
<polyline fill="none" stroke="#262626" stroke-width="0.5" stroke-linecap="butt" stroke-linejoin="miter" points="342.72,384.48 342.72,380.015"/>
<polyline fill="none" stroke="#262626" stroke-width="0.5" stroke-linecap="butt" stroke-linejoin="miter" points="342.72,32.4 342.72,36.8651"/>
<polyline fill="none" stroke="#262626" stroke-width="0.5" stroke-linecap="butt" stroke-linejoin="miter" points="432,384.48 432,380.015"/>
<polyline fill="none" stroke="#262626" stroke-width="0.5" stroke-linecap="butt" stroke-linejoin="miter" points="432,32.4 432,36.8651"/>
<polyline fill="none" stroke="#262626" stroke-width="0.5" stroke-linecap="butt" stroke-linejoin="miter" points="521.28,384.48 521.28,380.015"/>
<polyline fill="none" stroke="#262626" stroke-width="0.5" stroke-linecap="butt" stroke-linejoin="miter" points="521.28,32.4 521.28,36.8651"/>
<text xml:space="preserve" transform="translate(68.88,400.481) rotate(-0,6,-11)" font-family="FreeSans" font-weight="normal" font-style="normal" font-size="10"><tspan y="-1" fill="rgb(38,38,38)" x="0 6 ">10</tspan></text>
<text xml:space="preserve" transform="translate(158.16,400.481) rotate(-0,6,-11)" font-family="FreeSans" font-weight="normal" font-style="normal" font-size="10"><tspan y="-1" fill="rgb(38,38,38)" x="0 6 ">12</tspan></text>
<text xml:space="preserve" transform="translate(247.44,400.481) rotate(-0,6,-11)" font-family="FreeSans" font-weight="normal" font-style="normal" font-size="10"><tspan y="-1" fill="rgb(38,38,38)" x="0 6 ">14</tspan></text>
<text xml:space="preserve" transform="translate(336.72,400.481) rotate(-0,6,-11)" font-family="FreeSans" font-weight="normal" font-style="normal" font-size="10"><tspan y="-1" fill="rgb(38,38,38)" x="0 6 ">16</tspan></text>
<text xml:space="preserve" transform="translate(426,400.481) rotate(-0,6,-11)" font-family="FreeSans" font-weight="normal" font-style="normal" font-size="10"><tspan y="-1" fill="rgb(38,38,38)" x="0 6 ">18</tspan></text>
<text xml:space="preserve" transform="translate(515.28,400.481) rotate(-0,6,-11)" font-family="FreeSans" font-weight="normal" font-style="normal" font-size="10"><tspan y="-1" fill="rgb(38,38,38)" x="0 6 ">20</tspan></text>
<polyline fill="none" stroke="#262626" stroke-width="0.5" stroke-linecap="butt" stroke-linejoin="miter" points="74.88,384.48 79.348,384.48"/>
<polyline fill="none" stroke="#262626" stroke-width="0.5" stroke-linecap="butt" stroke-linejoin="miter" points="521.28,384.48 516.812,384.48"/>
<polyline fill="none" stroke="#262626" stroke-width="0.5" stroke-linecap="butt" stroke-linejoin="miter" points="74.88,325.8 79.348,325.8"/>
<polyline fill="none" stroke="#262626" stroke-width="0.5" stroke-linecap="butt" stroke-linejoin="miter" points="521.28,325.8 516.812,325.8"/>
<polyline fill="none" stroke="#262626" stroke-width="0.5" stroke-linecap="butt" stroke-linejoin="miter" points="74.88,267.12 79.348,267.12"/>
<polyline fill="none" stroke="#262626" stroke-width="0.5" stroke-linecap="butt" stroke-linejoin="miter" points="521.28,267.12 516.812,267.12"/>
<polyline fill="none" stroke="#262626" stroke-width="0.5" stroke-linecap="butt" stroke-linejoin="miter" points="74.88,208.44 79.348,208.44"/>
<polyline fill="none" stroke="#262626" stroke-width="0.5" stroke-linecap="butt" stroke-linejoin="miter" points="521.28,208.44 516.812,208.44"/>
<polyline fill="none" stroke="#262626" stroke-width="0.5" stroke-linecap="butt" stroke-linejoin="miter" points="74.88,149.76 79.348,149.76"/>
<polyline fill="none" stroke="#262626" stroke-width="0.5" stroke-linecap="butt" stroke-linejoin="miter" points="521.28,149.76 516.812,149.76"/>
<polyline fill="none" stroke="#262626" stroke-width="0.5" stroke-linecap="butt" stroke-linejoin="miter" points="74.88,91.08 79.348,91.08"/>
<polyline fill="none" stroke="#262626" stroke-width="0.5" stroke-linecap="butt" stroke-linejoin="miter" points="521.28,91.08 516.812,91.08"/>
<polyline fill="none" stroke="#262626" stroke-width="0.5" stroke-linecap="butt" stroke-linejoin="miter" points="74.88,32.4 79.348,32.4"/>
<polyline fill="none" stroke="#262626" stroke-width="0.5" stroke-linecap="butt" stroke-linejoin="miter" points="521.28,32.4 516.812,32.4"/>
<text xml:space="preserve" transform="translate(57.8755,389.98) rotate(-0,12,-5.5)" font-family="FreeSans" font-weight="normal" font-style="normal" font-size="10"><tspan y="-1" fill="rgb(38,38,38)" x="0 6 ">23</tspan></text>
<text xml:space="preserve" transform="translate(57.8755,331.3) rotate(-0,12,-5.5)" font-family="FreeSans" font-weight="normal" font-style="normal" font-size="10"><tspan y="-1" fill="rgb(38,38,38)" x="0 6 ">24</tspan></text>
<text xml:space="preserve" transform="translate(57.8755,272.62) rotate(-0,12,-5.5)" font-family="FreeSans" font-weight="normal" font-style="normal" font-size="10"><tspan y="-1" fill="rgb(38,38,38)" x="0 6 ">25</tspan></text>
<text xml:space="preserve" transform="translate(57.8755,213.94) rotate(-0,12,-5.5)" font-family="FreeSans" font-weight="normal" font-style="normal" font-size="10"><tspan y="-1" fill="rgb(38,38,38)" x="0 6 ">26</tspan></text>
<text xml:space="preserve" transform="translate(57.8755,155.26) rotate(-0,12,-5.5)" font-family="FreeSans" font-weight="normal" font-style="normal" font-size="10"><tspan y="-1" fill="rgb(38,38,38)" x="0 6 ">27</tspan></text>
<text xml:space="preserve" transform="translate(57.8755,96.58) rotate(-0,12,-5.5)" font-family="FreeSans" font-weight="normal" font-style="normal" font-size="10"><tspan y="-1" fill="rgb(38,38,38)" x="0 6 ">28</tspan></text>
<text xml:space="preserve" transform="translate(57.8755,37.9) rotate(-0,12,-5.5)" font-family="FreeSans" font-weight="normal" font-style="normal" font-size="10"><tspan y="-1" fill="rgb(38,38,38)" x="0 6 ">29</tspan></text>
<polyline fill="none" stroke="#262626" stroke-width="0.5" stroke-linecap="square" stroke-linejoin="miter" stroke-dasharray="16,0" points="74.88,384.48 521.28,384.48"/>
<polyline fill="none" stroke="#262626" stroke-width="0.5" stroke-linecap="square" stroke-linejoin="miter" stroke-dasharray="16,0" points="74.88,32.4 521.28,32.4"/>
<polyline fill="none" stroke="#262626" stroke-width="0.5" stroke-linecap="square" stroke-linejoin="miter" stroke-dasharray="16,0" points="74.88,384.48 74.88,32.4"/>
<polyline fill="none" stroke="#262626" stroke-width="0.5" stroke-linecap="square" stroke-linejoin="miter" stroke-dasharray="16,0" points="521.28,384.48 521.28,32.4"/>
<text xml:space="preserve" transform="translate(166.08,22.4) rotate(-0,132,0)" font-family="FreeSans" font-weight="bold" font-style="normal" font-size="11"><tspan y="-2" fill="rgb(0,0,0)" x="0 7 13 23 30 36 40 46 50 57 61 67 70 77 81 84 90 96 106 113 116 122 125 129 136 140 143 150 157 161 167 171 174 181 188 191 198 202 205 211 217 224 230 234 237 247 253 260 ">Temperature of sample for duration of experiment</tspan></text>
<text xml:space="preserve" transform="translate(12.8755,208.44) rotate(-90,41,0)" font-family="FreeSans" font-weight="normal" font-style="normal" font-size="11"><tspan y="-2" fill="rgb(38,38,38)" x="0 7 13 22 28 34 38 44 47 53 57 63 66 70 78 ">Temperature (C)</tspan></text>
<text xml:space="preserve" transform="translate(273.08,413.481) rotate(-0,25,-13)" font-family="FreeSans" font-weight="normal" font-style="normal" font-size="11"><tspan y="-2" fill="rgb(38,38,38)" x="0 7 9 18 24 27 31 37 41 46 ">Time (hrs)</tspan></text>
<polyline fill="none" stroke="#0071bc" stroke-width="0.5" stroke-linecap="butt" stroke-linejoin="round" stroke-dasharray="4,4,4,4" points="123.327,375.42 124.604,370.504 125.881,365.594 127.171,363.091 128.436,359.892 309.612,40.9838 311.1,56.0416 312.588,70.2052 314.076,82.3584 315.564,94.4061 317.052,105.558 318.54,116.249 320.028,125.936 321.516,133.963 323.004,143.352 324.492,151.682 325.992,158.759 327.48,166.545 328.968,173.707 330.456,180.27 331.944,186.726 333.432,192.775 334.92,199.123 336.408,204.765 337.896,210.19 339.384,215.916 340.872,221.834 342.36,225.543 343.848,230.753 345.336,234.408 346.837,239.509 348.325,243.166 349.8,247.313 351.288,250.86 352.789,255.007 354.277,258.255 355.765,262.347 357.253,265.239 358.728,269.032 360.229,273.179 361.717,274.872 363.205,277.709 364.693,280.355 366.181,282.593 367.644,285.54 369.144,288.487 370.645,290.533 372.145,293.834 373.646,296.126 375.121,297.272 376.622,299.373 378.11,303.875 379.598,304.12 381.086,307.121 382.574,309.167 384.062,311.023 385.55,312.469 387.038,314.569 388.526,315.47 390.014,318.226 391.514,320.272 392.99,321.827 394.478,322.373 395.966,324.774 397.454,325.074 398.942,327.23 400.442,328.43 401.93,330.586 403.418,331.841 404.906,332.087 406.394,334.842 407.882,336.043 409.37,338.144 410.858,338.444 412.346,339.044 413.834,340.9 415.322,341.255 416.81,342.756 418.298,343.411 419.786,344.311 421.274,346.467 422.774,347.668 424.262,346.822 425.75,348.077 427.238,348.678 428.726,350.588 430.214,350.534 431.702,350.834 433.19,352.034 434.678,352.989 436.166,353.59 437.654,354.546 439.142,354.901 440.63,355.856 442.118,356.756 485.37,370.705 486.126,371.005 486.87,370.46 487.614,370.705 488.358,369.859"/>
</g>
</g>
</svg>
